<svg id="visual" viewBox="0 0 900 600" width="900" height="600" xmlns="http://www.w3.org/2000/svg" xmlns:xlink="http://www.w3.org/1999/xlink" version="1.1"><g stroke-width="1" stroke-linejoin="bevel"><path d="M517 272L565 295L608 214Z" fill="#500603" stroke="#500603"></path><path d="M608 214L477 169L517 272Z" fill="#430c07" stroke="#430c07"></path><path d="M565 295L674 273L608 214Z" fill="#111111" stroke="#111111"></path><path d="M674 273L679 198L608 214Z" fill="#36100a" stroke="#36100a"></path><path d="M608 214L498 106L477 169Z" fill="#3d0f08" stroke="#3d0f08"></path><path d="M679 198L622 112L608 214Z" fill="#36100a" stroke="#36100a"></path><path d="M502 424L614 378L565 295Z" fill="#1a1210" stroke="#1a1210"></path><path d="M565 295L614 378L674 273Z" fill="#28120d" stroke="#28120d"></path><path d="M622 112L498 106L608 214Z" fill="#22120e" stroke="#22120e"></path><path d="M380 371L502 424L517 272Z" fill="#3d0f08" stroke="#3d0f08"></path><path d="M517 272L502 424L565 295Z" fill="#1a1210" stroke="#1a1210"></path><path d="M425 78L380 169L477 169Z" fill="#4a0905" stroke="#4a0905"></path><path d="M477 169L380 169L517 272Z" fill="#4a0905" stroke="#4a0905"></path><path d="M814 177L727 110L679 198Z" fill="#430c07" stroke="#430c07"></path><path d="M679 198L727 110L622 112Z" fill="#570101" stroke="#570101"></path><path d="M494 0L425 78L498 106Z" fill="#22120e" stroke="#22120e"></path><path d="M591 0L498 106L622 112Z" fill="#36100a" stroke="#36100a"></path><path d="M498 106L425 78L477 169Z" fill="#4a0905" stroke="#4a0905"></path><path d="M380 169L360 329L517 272Z" fill="#570101" stroke="#570101"></path><path d="M360 329L380 371L517 272Z" fill="#430c07" stroke="#430c07"></path><path d="M723 427L791 260L674 273Z" fill="#1a1210" stroke="#1a1210"></path><path d="M674 273L791 260L679 198Z" fill="#1a1210" stroke="#1a1210"></path><path d="M675 0L591 0L622 112Z" fill="#3d0f08" stroke="#3d0f08"></path><path d="M629 512L679 457L614 378Z" fill="#22120e" stroke="#22120e"></path><path d="M614 378L723 427L674 273Z" fill="#22120e" stroke="#22120e"></path><path d="M679 457L723 427L614 378Z" fill="#570101" stroke="#570101"></path><path d="M591 0L494 0L498 106Z" fill="#1a1210" stroke="#1a1210"></path><path d="M390 498L532 494L502 424Z" fill="#500603" stroke="#500603"></path><path d="M502 424L532 494L614 378Z" fill="#500603" stroke="#500603"></path><path d="M791 260L814 177L679 198Z" fill="#1a1210" stroke="#1a1210"></path><path d="M727 110L675 0L622 112Z" fill="#2f110c" stroke="#2f110c"></path><path d="M797 0L675 0L727 110Z" fill="#36100a" stroke="#36100a"></path><path d="M532 494L629 512L614 378Z" fill="#22120e" stroke="#22120e"></path><path d="M759 490L773 429L723 427Z" fill="#1a1210" stroke="#1a1210"></path><path d="M759 490L723 427L679 457Z" fill="#111111" stroke="#111111"></path><path d="M723 427L773 429L791 260Z" fill="#22120e" stroke="#22120e"></path><path d="M791 260L900 185L814 177Z" fill="#22120e" stroke="#22120e"></path><path d="M360 329L303 429L380 371Z" fill="#111111" stroke="#111111"></path><path d="M380 371L390 498L502 424Z" fill="#22120e" stroke="#22120e"></path><path d="M380 169L283 297L360 329Z" fill="#4a0905" stroke="#4a0905"></path><path d="M288 156L283 297L380 169Z" fill="#430c07" stroke="#430c07"></path><path d="M258 71L288 156L425 78Z" fill="#3d0f08" stroke="#3d0f08"></path><path d="M425 78L288 156L380 169Z" fill="#111111" stroke="#111111"></path><path d="M494 0L407 0L425 78Z" fill="#3d0f08" stroke="#3d0f08"></path><path d="M303 429L390 498L380 371Z" fill="#111111" stroke="#111111"></path><path d="M532 494L612 600L629 512Z" fill="#430c07" stroke="#430c07"></path><path d="M900 135L839 94L814 177Z" fill="#570101" stroke="#570101"></path><path d="M814 177L839 94L727 110Z" fill="#1a1210" stroke="#1a1210"></path><path d="M629 512L759 490L679 457Z" fill="#36100a" stroke="#36100a"></path><path d="M283 297L303 429L360 329Z" fill="#2f110c" stroke="#2f110c"></path><path d="M839 94L797 0L727 110Z" fill="#500603" stroke="#500603"></path><path d="M900 440L900 295L773 429Z" fill="#28120d" stroke="#28120d"></path><path d="M773 429L900 295L791 260Z" fill="#1a1210" stroke="#1a1210"></path><path d="M900 295L900 185L791 260Z" fill="#500603" stroke="#500603"></path><path d="M839 94L900 0L797 0Z" fill="#22120e" stroke="#22120e"></path><path d="M407 0L314 0L425 78Z" fill="#111111" stroke="#111111"></path><path d="M314 0L258 71L425 78Z" fill="#1a1210" stroke="#1a1210"></path><path d="M288 156L204 240L283 297Z" fill="#22120e" stroke="#22120e"></path><path d="M258 71L227 133L288 156Z" fill="#28120d" stroke="#28120d"></path><path d="M283 297L216 339L303 429Z" fill="#430c07" stroke="#430c07"></path><path d="M303 429L312 493L390 498Z" fill="#111111" stroke="#111111"></path><path d="M186 478L312 493L303 429Z" fill="#28120d" stroke="#28120d"></path><path d="M900 185L900 135L814 177Z" fill="#4a0905" stroke="#4a0905"></path><path d="M227 133L204 240L288 156Z" fill="#430c07" stroke="#430c07"></path><path d="M204 240L216 339L283 297Z" fill="#430c07" stroke="#430c07"></path><path d="M431 600L526 600L532 494Z" fill="#3d0f08" stroke="#3d0f08"></path><path d="M629 512L707 600L759 490Z" fill="#28120d" stroke="#28120d"></path><path d="M431 600L532 494L390 498Z" fill="#4a0905" stroke="#4a0905"></path><path d="M526 600L612 600L532 494Z" fill="#1a1210" stroke="#1a1210"></path><path d="M312 493L431 600L390 498Z" fill="#570101" stroke="#570101"></path><path d="M612 600L707 600L629 512Z" fill="#430c07" stroke="#430c07"></path><path d="M900 461L900 440L773 429Z" fill="#430c07" stroke="#430c07"></path><path d="M900 461L773 429L759 490Z" fill="#111111" stroke="#111111"></path><path d="M806 600L900 461L759 490Z" fill="#500603" stroke="#500603"></path><path d="M227 133L143 165L204 240Z" fill="#3d0f08" stroke="#3d0f08"></path><path d="M258 71L107 100L227 133Z" fill="#1a1210" stroke="#1a1210"></path><path d="M314 0L233 0L258 71Z" fill="#3d0f08" stroke="#3d0f08"></path><path d="M900 135L900 0L839 94Z" fill="#3d0f08" stroke="#3d0f08"></path><path d="M204 240L160 363L216 339Z" fill="#28120d" stroke="#28120d"></path><path d="M216 339L186 478L303 429Z" fill="#3d0f08" stroke="#3d0f08"></path><path d="M312 493L260 600L431 600Z" fill="#430c07" stroke="#430c07"></path><path d="M61 312L160 363L204 240Z" fill="#1a1210" stroke="#1a1210"></path><path d="M107 100L143 165L227 133Z" fill="#4a0905" stroke="#4a0905"></path><path d="M707 600L806 600L759 490Z" fill="#111111" stroke="#111111"></path><path d="M160 363L186 478L216 339Z" fill="#111111" stroke="#111111"></path><path d="M186 478L260 600L312 493Z" fill="#28120d" stroke="#28120d"></path><path d="M123 0L107 100L258 71Z" fill="#4a0905" stroke="#4a0905"></path><path d="M143 165L61 312L204 240Z" fill="#570101" stroke="#570101"></path><path d="M806 600L900 600L900 461Z" fill="#111111" stroke="#111111"></path><path d="M233 0L123 0L258 71Z" fill="#3d0f08" stroke="#3d0f08"></path><path d="M160 363L74 421L186 478Z" fill="#2f110c" stroke="#2f110c"></path><path d="M186 478L190 600L260 600Z" fill="#2f110c" stroke="#2f110c"></path><path d="M0 230L61 312L143 165Z" fill="#2f110c" stroke="#2f110c"></path><path d="M0 230L143 165L0 133Z" fill="#2f110c" stroke="#2f110c"></path><path d="M119 600L190 600L186 478Z" fill="#3d0f08" stroke="#3d0f08"></path><path d="M61 312L74 421L160 363Z" fill="#430c07" stroke="#430c07"></path><path d="M0 133L143 165L107 100Z" fill="#2f110c" stroke="#2f110c"></path><path d="M61 312L0 407L74 421Z" fill="#28120d" stroke="#28120d"></path><path d="M0 230L0 269L61 312Z" fill="#36100a" stroke="#36100a"></path><path d="M57 523L119 600L186 478Z" fill="#570101" stroke="#570101"></path><path d="M57 523L186 478L74 421Z" fill="#570101" stroke="#570101"></path><path d="M0 0L0 133L107 100Z" fill="#2f110c" stroke="#2f110c"></path><path d="M0 407L57 523L74 421Z" fill="#3d0f08" stroke="#3d0f08"></path><path d="M0 269L0 407L61 312Z" fill="#500603" stroke="#500603"></path><path d="M123 0L0 0L107 100Z" fill="#570101" stroke="#570101"></path><path d="M0 407L0 535L57 523Z" fill="#111111" stroke="#111111"></path><path d="M57 523L0 600L119 600Z" fill="#1a1210" stroke="#1a1210"></path><path d="M0 535L0 600L57 523Z" fill="#36100a" stroke="#36100a"></path></g></svg>